<svg width="912" height="902" viewBox="0 0 912 902" fill="none" xmlns="http://www.w3.org/2000/svg">
<path d="M96.8833 334.87C92.1467 358.066 85.5934 381.035 82.9332 404.426C69.9887 517.747 98.1161 618.999 174.355 705.425C213.124 749.385 259.419 782.735 313.857 804.601C331.473 811.674 334.133 810.538 338.481 792.435C347.402 755.257 355.935 717.98 364.499 680.704C369.301 659.844 374.556 655.627 394.768 661.823C510.165 697.185 637.112 626.039 666.796 505.386C672.83 480.893 694.664 468.11 716.919 473.755C740.343 479.692 753.417 502.596 747.772 527.869C722.37 642.163 615.797 737.673 496.993 752.207C480.48 754.219 463.74 755.614 447.13 755.257C432.206 754.932 426.01 761.096 423.414 775.209C417.672 806.451 410.859 837.498 404.306 868.61C399.018 893.688 381.921 905.335 356.875 899.722C277.943 882.009 208.647 846.03 149.018 790.878C80.1107 727.129 34.14 649.949 12.8903 558.916C-5.53685 479.952 -3.94718 400.825 21.2604 323.093C29.5657 297.497 52.405 287.342 74.6928 298.373C89.746 305.802 96.6238 318.389 96.8833 334.902V334.87Z" fill="white"/>
<path d="M448.395 152.058C572.908 158.255 662.352 208.702 720.066 311.414C727.496 324.651 736.093 326.987 749.167 322.672C778.852 312.907 808.634 303.466 838.383 293.993C864.889 285.525 882.018 294.447 890.129 321.536C920.884 424.216 918.613 526.279 877.184 625.131C817.88 766.774 712.962 858.099 563.889 897.516C537.871 904.394 516.686 894.823 511.171 874.644C504.131 848.917 516.621 829.257 544.716 821.926C699.595 781.503 807.466 661.791 828.651 503.31C832.998 470.706 829.786 436.869 827.742 403.745C826.607 385.35 820.216 382.787 802.762 388.205C769.314 398.554 735.931 409.066 702.483 419.415C678.443 426.844 671.792 423.145 665.239 399.073C633.413 282.346 516.881 214.834 399.959 245.394C376.308 251.558 352.593 239.782 346.559 218.857C339.519 194.395 352.593 169.674 378.093 163.9C403.657 158.092 429.871 155.108 448.363 152.091L448.395 152.058Z" fill="white"/>
<path d="M443.269 0.974609C580.987 2.75893 688.5 47.5617 777.846 135.545C785.178 142.78 791.699 152.512 794.521 162.277C799.161 178.239 790.563 193.844 776.354 201.857C761.82 210.032 741.057 206.042 726.717 194.687C697.714 171.718 670.073 145.894 638.117 127.986C531.869 68.4545 420.917 63.7828 308.602 110.24C282.972 120.849 259.354 136.616 235.671 151.377C219.158 161.693 219.45 171.751 233.4 185.019C258.381 208.735 283.232 232.612 307.855 256.684C324.044 272.516 324.336 281.113 307.434 297.14C270.806 331.853 249.005 373.931 242.16 423.794C232.524 494.064 253.352 554.634 301.594 605.893C315.512 620.719 323.947 636.161 316.745 656.73C307.79 682.391 276.516 695.141 256.759 677.039C233.725 655.919 211.697 631.522 196.514 604.433C138.799 501.623 140.583 397.97 200.407 295.842C212.41 275.339 212.702 273.846 195.054 257.787C175.167 239.685 154.987 221.841 134.387 204.582C108.076 182.554 106.129 162.472 130.656 138.011C199.304 69.5575 280.831 24.9819 376.828 8.63098C402.716 4.21883 429.092 2.59672 443.334 1.00705L443.269 0.974609Z" fill="white"/>
<path d="M456.019 305.867C536.216 306.094 604.41 374.579 604.28 454.809C604.15 535.039 535.243 603.33 455.143 602.616C374.102 601.902 306.103 533.741 306.817 453.868C307.531 373.412 375.854 305.64 456.051 305.867H456.019Z" fill="white"/>
</svg>
